<svg width="28" height="24" viewBox="0 0 28 24" fill="none" xmlns="http://www.w3.org/2000/svg">
<path d="M14.669 3.43272H13.3526V14.64H14.669V3.43272Z" fill="#909090"/>
<path d="M17.9635 3.43272H16.6472V14.64H17.9635V3.43272Z" fill="#909090"/>
<path d="M21.2581 3.43272H19.9417V14.64H21.2581V3.43272Z" fill="#909090"/>
<path d="M8.07263 3.43272H6.75627V14.64H8.07263V3.43272Z" fill="#909090"/>
<path d="M11.3745 3.43272H10.0581V14.64H11.3745V3.43272Z" fill="#909090"/>
<path d="M25.869 17.2727V17.9345H24.5526V15.9564H24.5454V0.792725H3.45445V14.6327H4.77082V2.11636H23.2217V15.9564H3.44718V17.9345H2.13082V17.2727H0.814453V19.9127H2.13082V19.2509H3.44718V21.2291H6.16718C6.45809 22.3636 7.49809 23.2073 8.71991 23.2073C9.94173 23.2073 10.9817 22.3636 11.2726 21.2291H16.7126C17.0035 22.3636 18.0435 23.2073 19.2654 23.2073C20.4872 23.2073 21.5272 22.3636 21.8181 21.2291H24.5454V19.2509H25.8617V19.9127H27.1781V17.2727H25.869ZM8.71991 21.8836C7.99264 21.8836 7.40354 21.2945 7.40354 20.5673C7.40354 19.84 7.99264 19.2509 8.71991 19.2509C9.44718 19.2509 10.0363 19.84 10.0363 20.5673C10.0363 21.2945 9.44718 21.8836 8.71991 21.8836ZM19.2654 21.8836C18.5381 21.8836 17.949 21.2945 17.949 20.5673C17.949 19.84 18.5381 19.2509 19.2654 19.2509C19.9926 19.2509 20.5817 19.84 20.5817 20.5673C20.5817 21.2945 19.9926 21.8836 19.2654 21.8836ZM21.8181 19.9055C21.5272 18.7709 20.4872 17.9273 19.2654 17.9273C18.0435 17.9273 17.0035 18.7709 16.7126 19.9055H11.2726C10.9817 18.7709 9.94173 17.9273 8.71991 17.9273C7.49809 17.9273 6.45809 18.7709 6.16718 19.9055H4.77082V17.2727H23.2363V19.9055H21.8181Z" fill="#909090"/>
</svg>
