<svg width="33" height="32" viewBox="0 0 33 32" fill="none" xmlns="http://www.w3.org/2000/svg">
<path d="M17.0022 7.43272H15.6859V18.64H17.0022V7.43272Z" fill="#0041A0"/>
<path d="M20.2968 7.43272H18.9804V18.64H20.2968V7.43272Z" fill="#0041A0"/>
<path d="M23.5913 7.43272H22.275V18.64H23.5913V7.43272Z" fill="#0041A0"/>
<path d="M10.4059 7.43272H9.08952V18.64H10.4059V7.43272Z" fill="#0041A0"/>
<path d="M13.7077 7.43272H12.3913V18.64H13.7077V7.43272Z" fill="#0041A0"/>
<path d="M28.2023 21.2727V21.9345H26.8859V19.9564H26.8786V4.79272H5.78771V18.6327H7.10407V6.11636H25.555V19.9564H5.78043V21.9345H4.46407V21.2727H3.14771V23.9127H4.46407V23.2509H5.78043V25.2291H8.50043C8.79134 26.3636 9.83134 27.2073 11.0532 27.2073C12.275 27.2073 13.315 26.3636 13.6059 25.2291H19.0459C19.3368 26.3636 20.3768 27.2073 21.5986 27.2073C22.8204 27.2073 23.8604 26.3636 24.1513 25.2291H26.8786V23.2509H28.195V23.9127H29.5113V21.2727H28.2023ZM11.0532 25.8836C10.3259 25.8836 9.7368 25.2945 9.7368 24.5673C9.7368 23.84 10.3259 23.2509 11.0532 23.2509C11.7804 23.2509 12.3695 23.84 12.3695 24.5673C12.3695 25.2945 11.7804 25.8836 11.0532 25.8836ZM21.5986 25.8836C20.8713 25.8836 20.2823 25.2945 20.2823 24.5673C20.2823 23.84 20.8713 23.2509 21.5986 23.2509C22.3259 23.2509 22.915 23.84 22.915 24.5673C22.915 25.2945 22.3259 25.8836 21.5986 25.8836ZM24.1513 23.9055C23.8604 22.7709 22.8204 21.9273 21.5986 21.9273C20.3768 21.9273 19.3368 22.7709 19.0459 23.9055H13.6059C13.315 22.7709 12.275 21.9273 11.0532 21.9273C9.83134 21.9273 8.79134 22.7709 8.50043 23.9055H7.10407V21.2727H25.5695V23.9055H24.1513Z" fill="#0041A0"/>
</svg>
