<svg width="20" height="25" viewBox="0 0 20 25" fill="none" xmlns="http://www.w3.org/2000/svg">
<path fill-rule="evenodd" clip-rule="evenodd" d="M4.70986 14.3H14.9402L19.6998 18.6936V21H18.2998V19.3065L14.3928 15.7H5.28975L1.6998 19.29V23.3H19.9998V24.7H0.299805V18.7101L4.70986 14.3Z" fill="#0041A0"/>
<path fill-rule="evenodd" clip-rule="evenodd" d="M9.9998 1.70005C7.62498 1.70005 5.6998 3.62522 5.6998 6.00005C5.6998 8.37487 7.62498 10.3 9.9998 10.3C12.3746 10.3 14.2998 8.37487 14.2998 6.00005C14.2998 3.62522 12.3746 1.70005 9.9998 1.70005ZM4.2998 6.00005C4.2998 2.85203 6.85178 0.300049 9.9998 0.300049C13.1478 0.300049 15.6998 2.85203 15.6998 6.00005C15.6998 9.14807 13.1478 11.7 9.9998 11.7C6.85178 11.7 4.2998 9.14807 4.2998 6.00005Z" fill="#0041A0"/>
</svg>
