<svg width="26" height="26" viewBox="0 0 26 26" fill="none" xmlns="http://www.w3.org/2000/svg">
<path fill-rule="evenodd" clip-rule="evenodd" d="M5.80374 4.42034L9.22974 1.93121L10.4694 2.12755L11.6546 3.75882L10.7781 4.39559L9.85669 3.12734L9.50348 3.0714L6.64317 5.14953L5.46561 7.36801C5.53503 7.51195 5.63395 7.71531 5.75818 7.96627C6.0192 8.49357 6.39165 9.23032 6.83686 10.0672C7.73003 11.7461 8.90556 13.8079 10.0559 15.3912C11.2062 16.9745 12.8039 18.7297 14.1246 20.098C14.783 20.78 15.3686 21.3619 15.7894 21.7731C15.9897 21.9688 16.1525 22.1257 16.268 22.2362L18.7418 21.8018L21.6021 19.7237L21.658 19.3704L19.2059 15.9954L18.6728 15.8008L16.0565 17.7016L15.7957 17.6189L15.9595 17.1026C15.7957 17.6189 15.7951 17.6187 15.7946 17.6185L15.7934 17.6182L15.7911 17.6174L15.7861 17.6158L15.7753 17.612C15.7676 17.6093 15.759 17.6061 15.7495 17.6024C15.7306 17.595 15.7081 17.5854 15.682 17.5733C15.6298 17.5489 15.563 17.5139 15.4809 17.4638C15.3171 17.3638 15.0906 17.2025 14.7965 16.9428C14.2095 16.4244 13.3414 15.5035 12.1529 13.8677C10.9644 12.2318 10.3568 11.1217 10.0452 10.4032C9.88906 10.0432 9.80563 9.77801 9.76117 9.59126C9.73889 9.49773 9.72627 9.42335 9.71925 9.3662C9.71573 9.33761 9.71362 9.31328 9.7124 9.29299C9.7118 9.28285 9.71141 9.27371 9.71119 9.26555L9.71098 9.25405L9.71094 9.24884L9.71095 9.24637L9.71095 9.24516C9.71095 9.24457 9.71096 9.24399 10.2526 9.24776L9.71096 9.24399L9.71286 8.97037L12.3456 7.05757L12.357 6.56878L11.5043 5.39504L12.3807 4.75827L13.4486 6.22817L13.4161 7.61889L10.8536 9.48065C10.8898 9.59905 10.9475 9.76104 11.0391 9.97211C11.3102 10.5972 11.8719 11.6378 13.0293 13.2309C14.1868 14.824 15.0029 15.6798 15.5136 16.1308C15.6861 16.2831 15.8223 16.388 15.9237 16.4591L18.5026 14.5854L19.888 15.0912L22.7982 19.0967L22.6019 20.3363L19.1759 22.8255L15.9194 23.3973L15.7218 23.2117L16.0926 22.8169C15.7218 23.2117 15.7219 23.2118 15.7218 23.2117L15.7091 23.1997L15.6732 23.1658C15.6418 23.136 15.5957 23.0922 15.5363 23.0354C15.4175 22.9219 15.2457 22.7564 15.0323 22.5479C14.6056 22.131 14.0123 21.5415 13.3452 20.8503C12.0149 19.4722 10.3751 17.6737 9.17946 16.028C7.98382 14.3823 6.78006 12.267 5.88045 10.576C5.42926 9.7279 5.05194 8.9815 4.78729 8.44688C4.65494 8.17951 4.55068 7.96494 4.47937 7.81691C4.44371 7.74289 4.41628 7.68549 4.39769 7.64643L4.37651 7.60181L4.36908 7.5861C4.36905 7.58603 4.36903 7.58598 4.85911 7.35529L4.36908 7.5861L4.25359 7.34074L5.80374 4.42034Z" fill="#002F6C"/>
</svg>
