<svg width="33" height="32" viewBox="0 0 33 32" fill="none" xmlns="http://www.w3.org/2000/svg">
<path fill-rule="evenodd" clip-rule="evenodd" d="M11.3766 18.3H21.6069L26.3666 22.6936V25H24.9666V23.3065L21.0595 19.7H11.9565L8.36655 23.29V27.3H26.6666V28.7H6.96655V22.7101L11.3766 18.3Z" fill="#909090"/>
<path fill-rule="evenodd" clip-rule="evenodd" d="M16.6666 5.70005C14.2917 5.70005 12.3666 7.62522 12.3666 10C12.3666 12.3749 14.2917 14.3 16.6666 14.3C19.0414 14.3 20.9666 12.3749 20.9666 10C20.9666 7.62522 19.0414 5.70005 16.6666 5.70005ZM10.9666 10C10.9666 6.85203 13.5185 4.30005 16.6666 4.30005C19.8146 4.30005 22.3666 6.85203 22.3666 10C22.3666 13.1481 19.8146 15.7 16.6666 15.7C13.5185 15.7 10.9666 13.1481 10.9666 10Z" fill="#909090"/>
</svg>
